<svg xmlns="http://www.w3.org/2000/svg" version="1.1" xmlns:xlink="http://www.w3.org/1999/xlink" xmlns:svgjs="http://svgjs.dev/svgjs" width="1500" height="257" viewBox="0 0 1500 257"><g transform="matrix(1,0,0,1,-0.9090909090909918,-0.49239936243137095)"><svg viewBox="0 0 396 68" data-background-color="#ffffff" preserveAspectRatio="xMidYMid meet" height="257" width="1500" xmlns="http://www.w3.org/2000/svg" xmlns:xlink="http://www.w3.org/1999/xlink"><g id="tight-bounds" transform="matrix(1,0,0,1,0.2400000000000091,0.13028465620752172)"><svg viewBox="0 0 395.52 67.73943068758494" height="67.73943068758494" width="395.52"><g><svg viewBox="0 0 525.610280541497 90.01957212637241" height="67.73943068758494" width="395.52"><g><rect width="5.874137420082993" height="65.46285816715213" x="410.8973230892225" y="12.278356979610138" fill="#8abe53" opacity="1" stroke-width="0" stroke="transparent" fill-opacity="1" class="rect-qz-0" data-fill-palette-color="primary" rx="1%" id="qz-0" data-palette-color="#8abe53"></rect></g><g transform="matrix(1,0,0,1,0,12.441199910374195)"><svg viewBox="0 0 395.52 65.13717230562402" height="65.13717230562402" width="395.52"><g id="textblocktransform"><svg viewBox="0 0 395.52 65.13717230562402" height="65.13717230562402" width="395.52" id="textblock"><g><svg viewBox="0 0 395.52 65.13717230562402" height="65.13717230562402" width="395.52"><g transform="matrix(1,0,0,1,0,0)"><svg width="395.52" viewBox="3.5 -36.15 222.07999999999998 36.75" height="65.13717230562402" data-palette-color="#8abe53"><g class="wordmark-text-0" data-fill-palette-color="primary" id="text-0"><path d="M14.8 0.6Q9.45 0.6 6.48-2.43 3.5-5.45 3.5-11.15L3.5-11.15 3.5-34.3 7.9-34.3 7.9-10.9Q7.9-7.3 9.73-5.38 11.55-3.45 14.8-3.45L14.8-3.45Q18.05-3.45 19.88-5.38 21.7-7.3 21.7-10.9L21.7-10.9 21.7-34.3 26.1-34.3 26.1-11.15Q26.1-5.45 23.13-2.43 20.15 0.6 14.8 0.6L14.8 0.6ZM30.9 0L30.9-1.95 42.45-22.65 31.7-22.65 31.7-26.3 48.1-26.3 48.1-24.4 36.5-3.65 48.75-3.65 48.75 0 30.9 0ZM58.7 0.6Q55.99 0.6 53.89-1 51.8-2.6 51.8-6.8L51.8-6.8Q51.8-11.85 55.22-13.73 58.64-15.6 65.09-15.6L65.09-15.6 65.09-19Q65.09-21.05 64.19-22.15 63.3-23.25 60.95-23.25L60.95-23.25Q58.8-23.25 57.84-22.05 56.89-20.85 56.89-19.1L56.89-19.1 56.89-18.5 52.84-18.5Q52.8-18.8 52.8-19.6L52.8-19.6Q52.8-23.1 55.09-25 57.39-26.9 61.24-26.9L61.24-26.9Q65.19-26.9 67.19-25 69.19-23.1 69.19-19.55L69.19-19.55 69.19-4.8Q69.19-3.95 69.59-3.5 70-3.05 70.59-3.05L70.59-3.05 72.19-3.05 72.19-0.2Q71.09 0.4 69.5 0.4L69.5 0.4Q67.89 0.4 66.82-0.48 65.75-1.35 65.34-2.85L65.34-2.85 65.09-2.85Q64.09-1.2 62.42-0.3 60.74 0.6 58.7 0.6L58.7 0.6ZM59.64-3.05Q60.99-3.05 62.24-3.8 63.49-4.55 64.3-6.03 65.09-7.5 65.09-9.55L65.09-9.55 65.09-11.95Q60.59-11.95 58.34-10.93 56.09-9.9 56.09-7.05L56.09-7.05Q56.09-4.9 56.97-3.98 57.84-3.05 59.64-3.05L59.64-3.05ZM76.54 0L76.54-26.3 80.64-26.3 80.64 0 76.54 0ZM76.44-31.4L76.44-36.15 80.69-36.15 80.69-31.4 76.44-31.4ZM87.29 0L87.29-26.3 90.39-26.3 90.94-22.85 91.24-22.85Q91.79-24.6 92.89-25.75 93.99-26.9 95.69-26.9L95.69-26.9Q96.74-26.9 97.64-26.5L97.64-26.5 97.64-22.25 96.29-22.25Q94.14-22.25 92.77-20.78 91.39-19.3 91.39-16.05L91.39-16.05 91.39 0 87.29 0Z" fill="#8abe53" data-fill-palette-color="primary"></path><path d="M122.64 0.6Q117.54 0.6 114.31-1.9 111.09-4.4 111.09-9.7L111.09-9.7 111.14-10.7 115.69-10.7 115.64-9.65Q115.64-6.6 117.51-5.03 119.39-3.45 122.44-3.45L122.44-3.45Q125.89-3.45 127.76-4.93 129.64-6.4 129.64-9.15L129.64-9.15Q129.64-11 128.61-12.18 127.59-13.35 126.06-14.05 124.54-14.75 121.89-15.6L121.89-15.6Q118.64-16.7 116.64-17.7 114.64-18.7 113.21-20.63 111.79-22.55 111.79-25.7L111.79-25.7Q111.79-30.2 114.84-32.55 117.89-34.9 122.69-34.9L122.69-34.9Q127.49-34.9 130.46-32.52 133.44-30.15 133.44-25.25L133.44-25.25 133.44-24.65 128.89-24.65 128.89-25.4Q128.89-27.95 127.16-29.4 125.44-30.85 122.79-30.85L122.79-30.85Q119.94-30.85 118.19-29.63 116.44-28.4 116.44-26.05L116.44-26.05Q116.44-24.3 117.44-23.18 118.44-22.05 119.94-21.38 121.44-20.7 124.04-19.85L124.04-19.85Q127.34-18.75 129.36-17.78 131.39-16.8 132.81-14.88 134.24-12.95 134.24-9.9L134.24-9.9Q134.24-4.4 131.11-1.9 127.99 0.6 122.64 0.6L122.64 0.6ZM144.04 0.5Q141.54 0.5 140.44-1.23 139.34-2.95 139.34-5.55L139.34-5.55 139.34-22.65 137.09-22.65 137.09-26.3 139.34-26.3 140.24-33.6 143.44-33.6 143.44-26.3 146.99-26.3 146.99-22.65 143.44-22.65 143.44-5.45Q143.44-3.05 145.79-3.05L145.79-3.05 146.99-3.05 146.99-0.2Q146.44 0.1 145.61 0.3 144.79 0.5 144.04 0.5L144.04 0.5ZM157.28 0.6Q154.13 0.6 152.46-1.28 150.78-3.15 150.78-7.35L150.78-7.35 150.78-26.3 154.88-26.3 154.88-7.65Q154.88-5.1 155.83-4.08 156.78-3.05 158.58-3.05L158.58-3.05Q160.63-3.05 162.06-5 163.48-6.95 163.48-10.25L163.48-10.25 163.48-26.3 167.58-26.3 167.58 0 164.48 0 163.93-3.05 163.63-3.05Q161.58 0.6 157.28 0.6L157.28 0.6ZM180.73 0.6Q176.83 0.6 174.71-2.8 172.58-6.2 172.58-13.2L172.58-13.2Q172.58-20 174.76-23.45 176.93-26.9 180.43-26.9L180.43-26.9Q182.38-26.9 183.88-26.08 185.38-25.25 186.03-23.8L186.03-23.8 186.28-23.8 186.28-36.15 190.38-36.15 190.38 0 187.28 0 186.73-3.05 186.48-3.05Q185.53-1.25 184.03-0.33 182.53 0.6 180.73 0.6L180.73 0.6ZM181.58-3.05Q186.28-3.05 186.28-12.2L186.28-12.2 186.28-13.9Q186.28-23.25 181.58-23.25L181.58-23.25Q179.18-23.25 178.03-21.1 176.88-18.95 176.88-14.1L176.88-14.1 176.88-12.2Q176.88-7.35 178.03-5.2 179.18-3.05 181.58-3.05L181.58-3.05ZM197.03 0L197.03-26.3 201.13-26.3 201.13 0 197.03 0ZM196.93-31.4L196.93-36.15 201.18-36.15 201.18-31.4 196.93-31.4ZM216.18 0.6Q211.53 0.6 209.15-2.78 206.78-6.15 206.78-13.15L206.78-13.15Q206.78-20.15 209.15-23.53 211.53-26.9 216.18-26.9L216.18-26.9Q220.83-26.9 223.2-23.53 225.58-20.15 225.58-13.15L225.58-13.15Q225.58-6.15 223.2-2.78 220.83 0.6 216.18 0.6L216.18 0.6ZM216.18-3.05Q221.28-3.05 221.28-12.2L221.28-12.2 221.28-14.1Q221.28-23.25 216.18-23.25L216.18-23.25Q211.08-23.25 211.08-14.1L211.08-14.1 211.08-12.2Q211.08-3.05 216.18-3.05L216.18-3.05Z" fill="#9fa6b2" data-fill-palette-color="secondary"></path></g></svg></g></svg></g></svg></g></svg></g><g transform="matrix(1,0,0,1,432.148783598528,0)"><svg viewBox="0 0 93.46149694296898 90.01957212637241" height="90.01957212637241" width="93.46149694296898"><g><svg xmlns="http://www.w3.org/2000/svg" xmlns:xlink="http://www.w3.org/1999/xlink" version="1.1" x="0" y="0" viewBox="0.7 2 70.6 68.00000000000001" enable-background="new 0 0 72 72" xml:space="preserve" height="90.01957212637241" width="93.46149694296898" class="icon-icon-0" data-fill-palette-color="accent" id="icon-0"><g fill="#398378" data-fill-palette-color="accent"><g fill="#398378" data-fill-palette-color="accent"><g fill="#398378" data-fill-palette-color="accent"><g fill="#398378" data-fill-palette-color="accent"><path d="M49.7 41.2c-0.7 0-1.4-0.3-1.8-0.8-0.8-1-0.7-2.5 0.2-3.4l5.7-5.7c0.5-0.5 0.5-1.3 0-1.8l-5.7-5.7c-0.9-0.9-1.1-2.3-0.3-3.3 0.9-1.1 2.6-1.2 3.6-0.2l8.5 8.5c0.5 0.5 0.7 1.1 0.7 1.7 0 0.6-0.3 1.3-0.7 1.7l-8.5 8.5C51 41 50.3 41.2 49.7 41.2z" fill="#398378" data-fill-palette-color="accent"></path></g><g fill="#398378" data-fill-palette-color="accent"><path d="M22.3 41.2c-0.6 0-1.2-0.2-1.7-0.7L12.1 32c-0.5-0.5-0.7-1.1-0.7-1.7 0-0.6 0.3-1.3 0.7-1.7l8.4-8.4c0.9-0.9 2.4-1.1 3.3-0.3 1.1 0.9 1.2 2.6 0.2 3.6l-5.8 5.8c-0.5 0.5-0.5 1.3 0 1.8l5.7 5.7c0.9 0.9 1.1 2.4 0.2 3.4C23.6 40.9 22.9 41.2 22.3 41.2z" fill="#398378" data-fill-palette-color="accent"></path></g></g><g fill="#398378" data-fill-palette-color="accent"><path d="M30.9 47c-0.3 0-0.5 0-0.8-0.1-1.3-0.4-1.9-1.8-1.5-3.1l10.2-28.5c0.4-1.3 1.8-1.9 3.1-1.5 1.3 0.4 1.9 1.8 1.5 3.1L33.2 45.4C32.8 46.4 31.9 47 30.9 47z" fill="#398378" data-fill-palette-color="accent"></path></g></g><path d="M63.7 2H8.3C4.1 2 0.7 5.4 0.7 9.6v39.8c0 4.2 3.4 7.6 7.6 7.6h22c0.4 0 0.7 0.3 0.7 0.7v3.6c0 0.3-0.2 0.6-0.6 0.7-4.5 0.7-7.7 2.1-7.7 3.8 0 2.3 6 4.2 13.3 4.2s13.3-1.9 13.3-4.2c0-1.7-3.2-3.2-7.7-3.8-0.3 0-0.6-0.3-0.6-0.7v-3.6c0-0.4 0.3-0.7 0.7-0.7h22c4.2 0 7.6-3.4 7.6-7.6V9.6C71.3 5.4 67.9 2 63.7 2zM66.4 49.4c0 1.5-1.2 2.7-2.7 2.7H8.3c-1.5 0-2.7-1.2-2.7-2.7V9.6c0-1.5 1.2-2.7 2.7-2.7h55.4c1.5 0 2.7 1.2 2.7 2.7V49.4z" fill="#398378" data-fill-palette-color="accent"></path></g></svg></g></svg></g></svg></g><defs></defs></svg><rect width="395.52" height="67.73943068758494" fill="none" stroke="none" visibility="hidden"></rect></g></svg></g></svg>